# xmcd
#
# Track frame offsets: 
#        150
#        13428
#        30195
#        41610
#        54908
#        70440
#        86913
#        104220
#        119348
#        134300
#        150785
#
# Disc length: 2248 seconds
#
# Revision: 7
# Processed by: cddbd v1.5.2PL0 Copyright (c) Steve Scherf et al.
# Submitted via: ExactAudioCopy v1.0b3
#
DISCID=9008c60b
DTITLE=Pam Tillis - Every Time
DYEAR=1998
DGENRE=Country
TTITLE0=I Said A Prayer
TTITLE1=Every Time
TTITLE2=You Put The Lonely On Me
TTITLE3=A Whisper And A Scream
TTITLE4=Lay The Heartache Down
TTITLE5=Hurt Myself
TTITLE6=Not Me
TTITLE7=Whiskey On The Wound
TTITLE8=We Must Be Thinking Alike
TTITLE9=After Hours
TTITLE10=A Great Disguise
EXTD=YEAR: 1998
EXTT0=
EXTT1=
EXTT2=
EXTT3=
EXTT4=
EXTT5=
EXTT6=
EXTT7=
EXTT8=
EXTT9=
EXTT10=
PLAYORDER=
